<?xml version="1.0" encoding="utf-8"?>
<!-- Generator: Adobe Illustrator 27.5.0, SVG Export Plug-In . SVG Version: 6.00 Build 0)  -->
<svg version="1.1" xmlns="http://www.w3.org/2000/svg" xmlns:xlink="http://www.w3.org/1999/xlink" x="0px" y="0px"
	 viewBox="0 0 500 500" style="enable-background:new 0 0 500 500;" xml:space="preserve">
<g id="BACKGROUND">
	<rect style="fill:#FFBE4D;" width="500" height="500"/>
</g>
<g id="OBJECTS">
	<g>
		<defs>
			<rect id="SVGID_1_" width="500" height="500"/>
		</defs>
		<clipPath id="SVGID_00000090273886375079365030000017394053470213995445_">
			<use xlink:href="#SVGID_1_"  style="overflow:visible;"/>
		</clipPath>
		<path style="clip-path:url(#SVGID_00000090273886375079365030000017394053470213995445_);fill:#FFC96B;" d="M-9,291.129
			c90,0,230.69-185.21,331.345-185.21S521,266.264,521,266.264v158.602H-9V291.129z"/>
		<path style="clip-path:url(#SVGID_00000090273886375079365030000017394053470213995445_);fill:#52B387;" d="M476.432,411.659
			c0,0,15.243-65.838,25.999-64.667c10.756,1.171-18.206,67.801-18.206,67.801L476.432,411.659z"/>
		<path style="clip-path:url(#SVGID_00000090273886375079365030000017394053470213995445_);fill:#52B387;" d="M45.839,392.278
			c0,0-11.152-96.699-0.768-101.019c10.384-4.32,9.167,100.955,9.167,100.955L45.839,392.278z"/>
		<path style="clip-path:url(#SVGID_00000090273886375079365030000017394053470213995445_);fill:#52B387;" d="M293.186,412.912
			c0,0-11.152-96.699-0.768-101.019c10.384-4.32,9.167,100.955,9.167,100.955L293.186,412.912z"/>
		<path style="clip-path:url(#SVGID_00000090273886375079365030000017394053470213995445_);fill:#428F6C;" d="M9.845,413.535
			h225.659c0,0-6.124-41.339-16.724-43.106c-10.6-1.767-15.546,21.553-15.546,21.553s-2.12-45.226-16.96-43.46
			c-14.84,1.767-12.013,26.409-18.726,27.338c-6.713,0.928-7.42-48.891-22.26-50.304c-14.84-1.413-16.606,19.786-22.613,19.433
			c-6.007-0.353,1.413-42.753-23.32-41.693s-30.74,72.786-38.513,69.253c-7.773-3.533-12.367-18.726-18.373-15.9
			c-6.007,2.827-6.713,30.386-13.78,29.326c-7.066-1.06-9.54-9.54-15.193-5.3C7.842,384.916,9.845,413.535,9.845,413.535z"/>
		<path style="clip-path:url(#SVGID_00000090273886375079365030000017394053470213995445_);fill:#428F6C;" d="M253.999,413.535
			h225.659c0,0-6.124-41.339-16.724-43.106c-10.6-1.767-15.547,21.553-15.547,21.553s-2.12-45.226-16.96-43.46
			c-14.84,1.767-12.013,26.409-18.726,27.338c-6.713,0.928-7.42-48.891-22.26-50.304c-14.84-1.413-16.607,19.786-22.613,19.433
			c-6.007-0.353,1.413-42.753-23.32-41.693c-24.733,1.06-30.74,72.786-38.513,69.253c-7.773-3.533-12.366-18.726-18.373-15.9
			s-6.713,30.386-13.78,29.326c-7.067-1.06-9.54-9.54-15.193-5.3C251.997,384.916,253.999,413.535,253.999,413.535z"/>
		<path style="clip-path:url(#SVGID_00000090273886375079365030000017394053470213995445_);fill:#52B387;" d="M311.291,413.535
			c0,0-13.709-127.373,0-132.954C325,275,322.345,413.535,322.345,413.535H311.291z"/>
		<path style="clip-path:url(#SVGID_00000090273886375079365030000017394053470213995445_);fill:#52B387;" d="M432.341,423.825
			c0,0,5.545-127.988,19.936-131.451c14.391-3.463-9.007,133.108-9.007,133.108L432.341,423.825z"/>
		<path style="clip-path:url(#SVGID_00000090273886375079365030000017394053470213995445_);fill:#52B387;" d="M458.894,423.606
			c0,0,4.213-97.249,15.148-99.88c10.935-2.631-6.844,101.139-6.844,101.139L458.894,423.606z"/>
		<path style="clip-path:url(#SVGID_00000090273886375079365030000017394053470213995445_);fill:#52B387;" d="M23.839,419.249
			c0,0-11.152-96.699-0.768-101.019c10.384-4.32,9.167,100.955,9.167,100.955L23.839,419.249z"/>
		
			<rect x="-9" y="407.437" style="clip-path:url(#SVGID_00000090273886375079365030000017394053470213995445_);fill:#EBAF47;" width="518" height="100.23"/>
		
			<ellipse style="clip-path:url(#SVGID_00000090273886375079365030000017394053470213995445_);fill:#D9A141;" cx="379.625" cy="449" rx="51.375" ry="6.8"/>
		
			<ellipse style="clip-path:url(#SVGID_00000090273886375079365030000017394053470213995445_);fill:#D9A141;" cx="171.724" cy="445" rx="139.567" ry="6.8"/>
		<path style="clip-path:url(#SVGID_00000090273886375079365030000017394053470213995445_);fill:#FFD285;" d="M-19.461,100.67
			h217.833c0,0-19-1.806-29.667-9.736c-10.667-7.931-7-25.082-40.667-25.082c0,0-7.333-37.849-42.667-37.849s-42,26.515-42,40.257
			c0,0-9-4.605-16.667,5.069c-7.667,9.674-6.667,15.007-14.667,15.34S-10.461,100.337-19.461,100.67z"/>
		<path style="clip-path:url(#SVGID_00000090273886375079365030000017394053470213995445_);fill:#FFD285;" d="M354.625,74.969
			h173.379c0,0-15.122-1.437-23.612-7.749s-5.572-19.963-32.368-19.963c0,0-4.311-30.125-34.822-30.125
			c-23.612,0-32.566,21.104-32.566,32.042c0,0-7.163-3.665-13.265,4.034c-6.102,7.7-5.301,12.21-11.674,12.21
			C366.244,65.418,361.788,74.704,354.625,74.969z"/>
		
			<rect x="59.337" y="61" style="clip-path:url(#SVGID_00000090273886375079365030000017394053470213995445_);fill:#54545C;" width="224.775" height="384"/>
		
			<rect x="-7.447" y="153.357" transform="matrix(-1.836970e-16 1 -1 -1.836970e-16 425.8641 82.4164)" style="clip-path:url(#SVGID_00000090273886375079365030000017394053470213995445_);fill:#FFFFFF;" width="358.342" height="201.567"/>
		
			<rect x="53.327" y="92.583" transform="matrix(-1.836970e-16 1 -1 -1.836970e-16 365.0905 21.6427)" style="clip-path:url(#SVGID_00000090273886375079365030000017394053470213995445_);fill:#D6E8FF;" width="236.794" height="201.567"/>
		
			<rect x="153.209" y="-7.299" transform="matrix(-1.836970e-16 1 -1 -1.836970e-16 265.2086 -78.2392)" style="clip-path:url(#SVGID_00000090273886375079365030000017394053470213995445_);fill:#6B63FF;" width="37.031" height="201.567"/>
		
			<rect x="70.94" y="74.969" style="clip-path:url(#SVGID_00000090273886375079365030000017394053470213995445_);fill:#372BFF;" width="37.031" height="37.031"/>
		<g style="clip-path:url(#SVGID_00000090273886375079365030000017394053470213995445_);">
			<line style="fill:none;stroke:#FFFFFF;stroke-miterlimit:10;" x1="83.706" y1="98.797" x2="95.206" y2="98.797"/>
			<line style="fill:none;stroke:#FFFFFF;stroke-miterlimit:10;" x1="83.706" y1="95.256" x2="95.206" y2="95.256"/>
			<line style="fill:none;stroke:#FFFFFF;stroke-miterlimit:10;" x1="83.706" y1="91.714" x2="95.206" y2="91.714"/>
			<line style="fill:none;stroke:#FFFFFF;stroke-miterlimit:10;" x1="83.706" y1="88.172" x2="95.206" y2="88.172"/>
		</g>
		<g style="clip-path:url(#SVGID_00000090273886375079365030000017394053470213995445_);">
			<defs>
				
					<rect id="SVGID_00000147898226022044627790000004924749913880326842_" x="59.628" y="98.884" transform="matrix(-1.836970e-16 1 -1 -1.836970e-16 371.3918 27.944)" width="224.192" height="201.567"/>
			</defs>
			<clipPath id="SVGID_00000124873795364758847420000017943184074887874197_">
				<use xlink:href="#SVGID_00000147898226022044627790000004924749913880326842_"  style="overflow:visible;"/>
			</clipPath>
			<g style="clip-path:url(#SVGID_00000124873795364758847420000017943184074887874197_);">
				<g>
					<circle style="fill:#C4C4C4;" cx="79.771" cy="201.774" r="58.557"/>
					<path style="fill:#ADADAD;" d="M79.771,260.332c15.093,0,28.849-5.713,39.232-15.091l-3.857-15.914
						c-1.568-4.153-5.043-7.295-9.333-8.437l-11.331-3.016c-2.278-0.606-3.977-2.507-4.326-4.838l-0.414-2.771
						c5.326-5.213,8.872-14.173,8.872-23.034c0-13.672-8.436-23.022-18.843-23.022c-10.407,0-18.843,9.349-18.843,23.022
						c0,8.861,3.546,17.821,8.872,23.034l-0.414,2.771c-0.348,2.331-2.048,4.232-4.326,4.838l-11.331,3.016
						c-4.29,1.142-7.765,4.284-9.333,8.437l-3.857,15.914C50.922,254.619,64.678,260.332,79.771,260.332z"/>
				</g>
				
					<linearGradient id="SVGID_00000122715459350615349000000007694383438059218101_" gradientUnits="userSpaceOnUse" x1="39.7239" y1="-16083.7744" x2="164.3924" y2="-16083.7744" gradientTransform="matrix(1 0 0 -1 0 -15882)">
					<stop  offset="0.369" style="stop-color:#FFFFFF"/>
					<stop  offset="1" style="stop-color:#000000"/>
				</linearGradient>
				
					<circle style="opacity:0.37;fill:url(#SVGID_00000122715459350615349000000007694383438059218101_);" cx="79.771" cy="201.774" r="58.557"/>
				<path style="opacity:0.11;" d="M120.458,159.682c-9.413,11.452-15.067,26.111-15.067,42.092c0,15.981,5.654,30.64,15.067,42.092
					c11.013-10.647,17.87-25.564,17.87-42.092C138.328,185.247,131.47,170.329,120.458,159.682z"/>
			</g>
		</g>
		<g style="clip-path:url(#SVGID_00000090273886375079365030000017394053470213995445_);">
			<g>
				<circle style="fill:#CCCCCC;" cx="171.724" cy="201.774" r="58.557"/>
				<path style="fill:#63A6FF;" d="M171.724,260.332c15.093,0,28.849-5.713,39.232-15.091l-3.857-15.914
					c-1.568-4.153-5.043-7.295-9.333-8.437l-11.331-3.016c-2.278-0.606-3.977-2.507-4.326-4.838l-0.414-2.771
					c5.326-5.213,8.872-14.173,8.872-23.034c0-13.672-8.436-23.022-18.843-23.022c-10.407,0-18.843,9.349-18.843,23.022
					c0,8.861,3.545,17.821,8.872,23.034l-0.414,2.771c-0.348,2.331-2.048,4.232-4.326,4.838l-11.331,3.016
					c-4.29,1.142-7.765,4.284-9.333,8.437l-3.857,15.914C142.875,254.619,156.631,260.332,171.724,260.332z"/>
			</g>
			<g>
				<path style="opacity:0.11;" d="M209.677,157.199c-10.399,11.926-16.712,27.509-16.712,44.575s6.313,32.649,16.712,44.575
					c12.602-10.741,20.604-26.719,20.604-44.575S222.279,167.94,209.677,157.199z"/>
			</g>
		</g>
		<path style="clip-path:url(#SVGID_00000090273886375079365030000017394053470213995445_);fill:#FFFFFF;" d="M212.904,296.378
			h-82.359c-5.055,0-9.154-4.098-9.154-9.154l0,0c0-5.055,4.098-9.154,9.154-9.154h82.359c5.055,0,9.154,4.098,9.154,9.154l0,0
			C222.057,292.279,217.959,296.378,212.904,296.378z"/>
		<g style="clip-path:url(#SVGID_00000090273886375079365030000017394053470213995445_);">
			<g>
				<path style="fill:#FFBE4D;" d="M145.244,351.683H93.703c-5.512,0-9.98-4.468-9.98-9.98l0,0c0-5.512,4.468-9.98,9.98-9.98h51.541
					c5.512,0,9.98,4.468,9.98,9.98l0,0C155.224,347.215,150.756,351.683,145.244,351.683z"/>
				
					<line style="fill:none;stroke:#C4923B;stroke-width:2;stroke-miterlimit:10;" x1="96.849" y1="341.704" x2="142.099" y2="341.704"/>
			</g>
			<g>
				<path style="fill:#F08873;" d="M247.828,351.683h-51.541c-5.512,0-9.979-4.468-9.979-9.98l0,0c0-5.512,4.468-9.98,9.979-9.98
					h51.541c5.512,0,9.98,4.468,9.98,9.98l0,0C257.807,347.215,253.339,351.683,247.828,351.683z"/>
				
					<line style="fill:none;stroke:#BA5A47;stroke-width:2;stroke-miterlimit:10;" x1="199.432" y1="341.704" x2="244.682" y2="341.704"/>
			</g>
		</g>
		
			<line style="clip-path:url(#SVGID_00000090273886375079365030000017394053470213995445_);fill:none;stroke:#D6E8FF;stroke-miterlimit:10;" x1="70.94" y1="373" x2="272.507" y2="373"/>
		<g style="clip-path:url(#SVGID_00000090273886375079365030000017394053470213995445_);">
			
				<line style="fill:none;stroke:#D6E8FF;stroke-width:2;stroke-linecap:round;stroke-linejoin:round;stroke-miterlimit:10;" x1="96.849" y1="395.667" x2="188.224" y2="395.667"/>
			
				<line style="fill:none;stroke:#D6E8FF;stroke-width:2;stroke-linecap:round;stroke-linejoin:round;stroke-miterlimit:10;" x1="96.849" y1="407.437" x2="188.224" y2="407.437"/>
			
				<polyline style="fill:none;stroke:#B4C3D6;stroke-width:2;stroke-linecap:round;stroke-linejoin:round;stroke-miterlimit:10;" points="
				244.682,396.027 232.057,406.777 219.432,396.027 			"/>
		</g>
		<path style="clip-path:url(#SVGID_00000090273886375079365030000017394053470213995445_);fill:#372BFF;" d="M205.474,100.735
			h-67.5c-4.004,0-7.25-3.246-7.25-7.25l0,0c0-4.004,3.246-7.25,7.25-7.25h67.5c4.004,0,7.25,3.246,7.25,7.25l0,0
			C212.724,97.489,209.478,100.735,205.474,100.735z"/>
		<g style="clip-path:url(#SVGID_00000090273886375079365030000017394053470213995445_);">
			<g>
				<circle style="fill:#FFFFFF;" cx="260.841" cy="201.774" r="58.557"/>
				<path style="fill:#F08873;" d="M260.841,260.332c15.093,0,28.849-5.713,39.232-15.091l-3.858-15.914
					c-1.568-4.153-5.043-7.295-9.333-8.437l-11.331-3.016c-2.278-0.606-3.977-2.507-4.326-4.838l-0.414-2.771
					c5.326-5.213,8.872-14.173,8.872-23.034c0-13.672-8.436-23.022-18.843-23.022c-10.407,0-18.843,9.349-18.843,23.022
					c0,8.861,3.546,17.821,8.872,23.034l-0.414,2.771c-0.348,2.331-2.048,4.232-4.326,4.838l-11.331,3.016
					c-4.29,1.142-7.765,4.284-9.333,8.437l-3.857,15.914C231.992,254.619,245.748,260.332,260.841,260.332z"/>
			</g>
		</g>
		<path style="clip-path:url(#SVGID_00000090273886375079365030000017394053470213995445_);fill:#FFD8B8;" d="M318.583,217.333
			c0,0-2.333-4.292-2.833-8.417s0.417-7.667,0.417-7.667s-5.417-4.708-4.417-6.583s8,5.001,8,5.001l2.595,7.723L318.583,217.333z"/>
		<g style="clip-path:url(#SVGID_00000090273886375079365030000017394053470213995445_);">
			<path style="fill:#E6E6E6;" d="M371.021,427.514v7.586c0,0,3.442,9.622,2.529,12.01c-0.913,2.388-33.865,7.313-36.102,4.144
				c-3.371-4.776,18.824-11.449,20.931-17.068l0.562-6.672H371.021z"/>
			<path style="fill:#E6E6E6;" d="M417.202,427.514v7.586c0,0,3.442,9.622,2.529,12.01c-0.913,2.388-33.865,7.313-36.102,4.144
				c-3.371-4.776,18.824-11.449,20.931-17.068l0.562-6.672H417.202z"/>
			<path style="fill:#F08873;" d="M358.94,427.514l-0.562,6.672c-0.148,0.396-0.406,0.797-0.737,1.202
				c3.531,1.613,9.379,3.58,14.054,1.716c-0.385-1.194-0.674-2.005-0.674-2.005v-7.586H358.94z"/>
			<path style="fill:#F08873;" d="M405.121,427.514l-0.562,6.672c-0.313,0.834-1.076,1.692-2.125,2.563
				c3.308,2.05,9.386,4.585,15.614,0.898c-0.47-1.49-0.846-2.548-0.846-2.548v-7.586H405.121z"/>
			<path style="fill:#FFD8B8;" d="M318.167,192.333c4.178,4.5,3.305,13.458,4.33,15.338c11.156,20.469,21.062,30.76,21.062,30.76
				c5.329-9.464,6.158-14.792,6.158-14.792l15.452,1.498c0,0-8.086,32.8-19.043,32.612s-23.438-20.059-29.151-39.258
				L318.167,192.333z"/>
			<path style="fill:#FFC494;" d="M348.34,228.305c2.256,1.625,7.106,4.424,14.396,5.109c1.557-4.738,2.432-8.277,2.432-8.277
				l-15.452-1.498C349.716,223.639,349.459,225.266,348.34,228.305z"/>
			<path style="fill:#3C6E7D;" d="M363.716,282.826l56.799-2.244l-1.406,149.461c0,0-7.679,3.933-17.981,0.936
				c0,0-12.924-91.964-14.609-113.316c0,0-12.549,35.025-12.736,60.685c-0.187,25.66,0,52.256,0,52.256s-10.114,2.06-16.482,0
				c0,0-7.679-48.698-10.301-66.491C344.378,346.32,363.716,282.826,363.716,282.826z"/>
			<path style="opacity:0.11;" d="M360.633,293.387c7.29,4.492,29.319,16.211,59.616,15.627l0.267-28.434l-56.799,2.244
				C363.716,282.826,362.46,286.952,360.633,293.387z"/>
			<path style="fill:#C93D22;" d="M353.111,191.424c-4.05,5.151-3.863,28.188-5.455,34.182c0,0,4.121,4.589,14.516,4.027
				c0,0-2.248-21.258-4.121-28.469C356.178,193.952,353.111,191.424,353.111,191.424z"/>
			<path style="opacity:0.11;" d="M365.168,225.138l-3.539-0.343c-0.78-6.713-2.27-18.594-3.578-23.631
				c-1.873-7.211-4.94-9.74-4.94-9.74l3.228,57.236C361.745,239.01,365.168,225.138,365.168,225.138z"/>
			<path style="fill:#FF4E2B;" d="M387.832,169.639c0,0,12.735,5.198,20.976,11.806c8.241,6.607,12.736,100.444,12.736,100.444
				c-13.86,3.184-32.965,23.225-59.748,7.679c0,0-0.515-63.869-8.686-98.144c0,0,7.188-10.489,20.486-16.67
				C383.623,170.094,387.832,169.639,387.832,169.639z"/>
			<g>
				<path style="fill:#C22C0F;" d="M417.754,228.571c-0.032-0.332-0.063-0.664-0.095-0.996c-13.756,1.955-37.45,4.428-58.869,2.285
					c0.031,0.339,0.062,0.677,0.093,1.015C380.323,232.99,403.978,230.525,417.754,228.571z"/>
				<path style="fill:#C22C0F;" d="M357.424,216.992c0.04,0.333,0.08,0.666,0.119,1c10.712,0.125,33.319-0.161,58.698-3.738
					c-0.039-0.333-0.079-0.662-0.119-0.993C390.696,216.847,368.049,217.121,357.424,216.992z"/>
				<path style="fill:#C22C0F;" d="M418.948,242.199c-0.027-0.339-0.055-0.677-0.082-1.017c-23.133,5.778-47.535,3.686-58.984,2.139
					c0.024,0.34,0.047,0.679,0.071,1.019C371.542,245.89,395.846,247.928,418.948,242.199z"/>
				<path style="fill:#C22C0F;" d="M419.985,256.025c-0.023-0.333-0.047-0.673-0.071-1.009c-11.398,2.788-31.705,5.956-59.138,3.146
					c0.017,0.34,0.035,0.68,0.051,1.016c7.522,0.766,14.511,1.084,20.931,1.084C398.684,260.262,411.642,258.054,419.985,256.025z"
					/>
			</g>
			<g>
				<g>
					
						<ellipse transform="matrix(0.7071 -0.7071 0.7071 0.7071 -61.2989 374.61)" style="fill:#FFFFFF;" cx="421.545" cy="261.299" rx="54.884" ry="54.884"/>
					<path style="fill:#F08873;" d="M416.744,315.973c14.092,1.237,27.404-2.969,37.868-10.873l-2.297-15.175
						c-1.123-4.007-4.111-7.225-8.022-8.643l-10.332-3.745c-2.077-0.753-3.508-2.667-3.642-4.872l-0.159-2.621
						c5.401-4.431,9.446-12.506,10.172-20.779c1.121-12.766-5.99-22.186-15.706-23.04c-9.717-0.853-18.36,7.184-19.481,19.95
						c-0.726,8.273,1.849,16.93,6.395,22.234l-0.614,2.553c-0.516,2.148-2.259,3.784-4.435,4.163l-10.827,1.887
						c-4.099,0.714-7.602,3.363-9.406,7.112l-4.906,14.542C390.277,308.274,402.652,314.736,416.744,315.973z"/>
				</g>
			</g>
			<path style="opacity:0.11;" d="M398.963,211.28c3.808,6.837,16.382,29.684,17.371,35.053c1.167,6.333,1.648,55.667,1.648,55.667
				h7.519c0,0,4.667-48.333,3.833-58.333c-0.592-7.101-10.078-26.21-15.531-36.698C408.605,207.705,403.619,209.173,398.963,211.28z
				"/>
			<path style="fill:#FFD8B8;" d="M411.712,220.83c0,0,7.492,17.606,8.897,23.881c1.405,6.275-0.749,52.069-0.749,52.069
				s-9.646,15.265-9.833,17.044c-0.187,1.779,3.278-0.655,4.495,0c1.217,0.656-0.375,4.027,1.03,4.495
				c1.405,0.468,8.335-0.375,10.676-3.184c2.341-2.809,4.121-8.147,4.214-15.171c0,0,7.117-39.894,5.525-57.032
				c-0.936-10.072-9.927-28.844-9.927-28.844L411.712,220.83z"/>
			<path style="fill:#FFC494;" d="M426.04,214.087l-14.328,6.743c0,0,0.577,1.355,1.438,3.443c2.333-0.786,8.853-2.99,15.145-5.2
				C426.987,216.065,426.04,214.087,426.04,214.087z"/>
			<path style="fill:#FFD8B8;" d="M353.111,129.358c0,0,2.648,27.673,3.139,32.52c0.492,4.846,5.57,6.392,8.309,6.251
				c2.739-0.141,6.462,10.816,6.392,12.994c0,0,8.639,2.95,17.138-8.99l-1.054-10.255c0,0,6.743-15.874,5.268-24.021
				c-1.475-8.148-8.358-16.155-18.332-16.716C363.997,120.578,353.111,129.358,353.111,129.358z"/>
			<polygon style="fill:#3B2F27;" points="362.045,151.28 372.586,154.125 357.253,155.417 359.711,151.28 			"/>
			<path style="fill:#F7D2B2;" d="M370.951,181.122c0,0,8.639,2.95,17.138-8.99l-1.054-10.255c0,0,2.266-5.34,3.884-11.414
				c-3.089-2.704-6.102-3.76-6.974,1.159c-1.836,10.357-13.64,16.201-19.025,16.555
				C367.613,168.925,371.018,179.039,370.951,181.122z"/>
			<path style="fill:#3B2F27;" d="M346.157,127.04c0,0-7.445-12.221,0-18.683c7.445-6.462,19.947,1.967,19.947,1.967
				s3.512-3.09,9.833-0.843c6.321,2.248,6.602,8.288,6.602,8.288s11.519,0.562,14.047,12.362c2.529,11.8-9.552,31.747-9.552,31.747
				l-3.09-10.255c0,0,4.589-0.983,4.963-6.04c0.375-5.057-2.294-7.258-4.121-7.164c-1.826,0.094-3.605,1.92-3.886,6.602
				c0,0-5.993-6.415-3.933-15.593c0,0-20.175,2.341-26.034,2.341C342.13,131.769,346.157,127.04,346.157,127.04z"/>
			<path style="fill:#C93D22;" d="M401.815,176.671c7.649,4.358,12.8,4.733,28.814,37.135c0,0-7.773,7.773-20.884,10.77
				C409.745,224.576,389.577,188.42,401.815,176.671z"/>
			<path style="fill:none;stroke:#F08873;stroke-miterlimit:10;" d="M383.636,450.625c0,0,20.383,0,36.249-5.625"/>
			<path style="fill:none;stroke:#F08873;stroke-miterlimit:10;" d="M337.154,450.625c0,0,21.754,0.125,36.55-5.625"/>
			<path style="opacity:0.11;" d="M367.692,431.394c3.441-0.251,6.092-0.79,6.092-0.79s-0.187-26.596,0-52.256
				c0.187-25.66,12.736-60.685,12.736-60.685S370,348.833,366,371.833C362.557,391.631,366.52,423.029,367.692,431.394z"/>
			<path style="fill:none;stroke:#315A66;stroke-miterlimit:10;" d="M400.599,427.188c0,0,8.484,2.562,18.551-1.439"/>
			<path style="fill:none;stroke:#315A66;stroke-miterlimit:10;" d="M356.815,427.514c0,0,7.093,1.648,16.889-0.641"/>
			<polyline style="fill:none;stroke:#CF9F78;stroke-miterlimit:10;" points="360.045,143.583 358.628,151.28 362.795,151.28 			"/>
			<path style="fill:none;stroke:#CF9F78;stroke-miterlimit:10;" d="M360.357,157.5c0,0,1.465,1.25,5.857,0.313"/>
			<ellipse style="fill:#3B2F27;" cx="364.92" cy="140.583" rx="1.688" ry="2.625"/>
			<ellipse style="fill:#3B2F27;" cx="357.253" cy="140.583" rx="1.688" ry="2.625"/>
			<line style="fill:none;stroke:#CF9F78;stroke-miterlimit:10;" x1="363.232" y1="135.75" x2="369.167" y2="135.167"/>
			<line style="fill:none;stroke:#CF9F78;stroke-miterlimit:10;" x1="358.941" y1="135.75" x2="354.625" y2="135.167"/>
		</g>
	</g>
</g>
<g id="DESIGNED_BY_FREEPIK">
	<g id="XMLID_76_">
		<g id="XMLID_929_">
			<path id="XMLID_958_" style="fill:#FFFFFF;" d="M181.087,469.44c-0.246,0-0.435,0.085-0.567,0.255
				c-0.133,0.17-0.199,0.421-0.199,0.753v2.392c-0.305-0.331-0.617-0.578-0.937-0.739c-0.321-0.159-0.715-0.24-1.182-0.24
				c-0.807,0-1.458,0.283-1.953,0.848c-0.494,0.566-0.742,1.356-0.742,2.369c0,0.478,0.063,0.923,0.187,1.335
				c0.124,0.412,0.307,0.77,0.549,1.074c0.241,0.305,0.527,0.539,0.857,0.703c0.33,0.164,0.689,0.246,1.078,0.246
				c0.293,0,0.563-0.04,0.809-0.122c0.248-0.081,0.477-0.199,0.689-0.356c0.212-0.156,0.427-0.359,0.644-0.608v0.16
				c0,0.297,0.072,0.525,0.217,0.685c0.145,0.161,0.328,0.241,0.549,0.241c0.226,0,0.409-0.077,0.552-0.231
				c0.143-0.154,0.214-0.386,0.214-0.695v-7.146c0-0.305-0.066-0.534-0.199-0.691C181.521,469.518,181.332,469.44,181.087,469.44z
				 M180.021,476.28c-0.14,0.306-0.328,0.533-0.563,0.682c-0.236,0.149-0.496,0.223-0.781,0.223c-0.281,0-0.539-0.079-0.777-0.236
				c-0.237-0.155-0.424-0.388-0.561-0.696c-0.136-0.309-0.204-0.682-0.204-1.122c0-0.415,0.063-0.781,0.193-1.095
				c0.128-0.315,0.309-0.556,0.543-0.724c0.233-0.168,0.499-0.253,0.795-0.253c0.285,0,0.547,0.082,0.786,0.246
				c0.239,0.165,0.429,0.402,0.569,0.712c0.141,0.311,0.21,0.682,0.21,1.114C180.232,475.589,180.162,475.973,180.021,476.28z"/>
			<path id="XMLID_954_" style="fill:#FFFFFF;" d="M188.452,475.36c0.233-0.122,0.35-0.385,0.35-0.793
				c0-0.438-0.114-0.87-0.339-1.294c-0.225-0.423-0.564-0.769-1.018-1.035c-0.453-0.268-0.996-0.4-1.628-0.4
				c-0.487,0-0.93,0.077-1.33,0.234c-0.4,0.157-0.737,0.381-1.009,0.674c-0.273,0.293-0.48,0.644-0.623,1.054
				c-0.143,0.409-0.214,0.853-0.214,1.332c0,1.017,0.289,1.822,0.867,2.415c0.577,0.592,1.387,0.89,2.427,0.89
				c0.455,0,0.858-0.059,1.207-0.178c0.352-0.12,0.641-0.268,0.873-0.448c0.231-0.18,0.404-0.368,0.519-0.564
				c0.115-0.197,0.172-0.367,0.172-0.514c0-0.166-0.052-0.294-0.155-0.386c-0.102-0.09-0.237-0.137-0.403-0.137
				c-0.154,0-0.273,0.035-0.356,0.107c-0.203,0.19-0.366,0.34-0.493,0.452c-0.126,0.111-0.265,0.215-0.415,0.312
				c-0.15,0.098-0.305,0.167-0.466,0.214c-0.16,0.045-0.337,0.067-0.531,0.067c-0.289,0-0.553-0.07-0.792-0.213
				c-0.239-0.142-0.432-0.354-0.576-0.635c-0.145-0.281-0.219-0.605-0.222-0.973h3.168
				C187.89,475.541,188.219,475.48,188.452,475.36z M184.297,474.621c0.056-0.546,0.212-0.959,0.472-1.238
				c0.259-0.28,0.59-0.418,0.994-0.418c0.423,0,0.764,0.137,1.024,0.412c0.259,0.275,0.409,0.69,0.448,1.244H184.297z"/>
			<path id="XMLID_952_" style="fill:#FFFFFF;" d="M193.879,474.923c-0.319-0.17-0.729-0.316-1.231-0.439
				c-0.425-0.103-0.756-0.19-0.997-0.261c-0.242-0.07-0.434-0.16-0.577-0.27c-0.142-0.109-0.213-0.248-0.213-0.419
				c0-0.186,0.096-0.341,0.29-0.465c0.194-0.126,0.437-0.187,0.73-0.187c0.286,0,0.511,0.047,0.677,0.142
				c0.166,0.095,0.31,0.222,0.433,0.38c0.151,0.19,0.284,0.332,0.401,0.426c0.116,0.095,0.258,0.143,0.423,0.143
				c0.231,0,0.408-0.06,0.532-0.178c0.124-0.119,0.186-0.271,0.186-0.457c0-0.171-0.058-0.345-0.175-0.523
				c-0.116-0.178-0.286-0.34-0.51-0.486c-0.223-0.146-0.502-0.264-0.837-0.35c-0.333-0.088-0.71-0.131-1.13-0.131
				c-0.535,0-0.99,0.085-1.367,0.259c-0.378,0.172-0.665,0.403-0.859,0.691c-0.194,0.289-0.291,0.596-0.291,0.92
				c0,0.364,0.105,0.671,0.315,0.92c0.21,0.249,0.489,0.45,0.84,0.602c0.35,0.153,0.804,0.298,1.362,0.436
				c0.494,0.12,0.849,0.244,1.066,0.375c0.216,0.131,0.323,0.338,0.323,0.622c0,0.187-0.104,0.352-0.311,0.497
				c-0.208,0.144-0.474,0.216-0.798,0.216c-0.4,0-0.715-0.071-0.947-0.213c-0.231-0.143-0.431-0.358-0.597-0.647
				c-0.082-0.15-0.17-0.267-0.261-0.35c-0.091-0.082-0.221-0.125-0.391-0.125c-0.194,0-0.355,0.064-0.481,0.19
				c-0.128,0.126-0.19,0.278-0.19,0.457c0,0.27,0.099,0.537,0.297,0.805c0.198,0.266,0.505,0.489,0.92,0.667
				c0.415,0.178,0.914,0.267,1.495,0.267c0.61,0,1.127-0.082,1.552-0.246c0.425-0.164,0.747-0.406,0.964-0.724
				c0.218-0.318,0.327-0.702,0.327-1.149c0-0.297-0.082-0.56-0.246-0.791C194.438,475.294,194.196,475.093,193.879,474.923z"/>
			<path id="XMLID_950_" style="fill:#FFFFFF;" d="M196.486,471.849c-0.237,0-0.43,0.081-0.578,0.243
				c-0.149,0.162-0.222,0.404-0.222,0.724v4.635c0,0.317,0.073,0.56,0.222,0.73c0.148,0.17,0.341,0.255,0.578,0.255
				c0.238,0,0.433-0.083,0.588-0.249c0.154-0.166,0.231-0.412,0.231-0.737v-4.682c0-0.289-0.077-0.514-0.231-0.677
				C196.919,471.93,196.724,471.849,196.486,471.849z"/>
			<path id="XMLID_949_" style="fill:#FFFFFF;" d="M196.504,469.51c-0.217,0-0.409,0.073-0.573,0.223
				c-0.164,0.149-0.246,0.337-0.246,0.567c0,0.254,0.08,0.45,0.24,0.588c0.16,0.139,0.353,0.208,0.579,0.208
				c0.217,0,0.405-0.071,0.563-0.211c0.158-0.14,0.238-0.335,0.238-0.585c0-0.258-0.081-0.453-0.243-0.588
				C196.9,469.577,196.714,469.51,196.504,469.51z"/>
			<path id="XMLID_945_" style="fill:#FFFFFF;" d="M203.626,471.849c-0.217,0-0.395,0.078-0.535,0.231
				c-0.139,0.155-0.208,0.372-0.208,0.653v0.22c-0.289-0.376-0.602-0.652-0.937-0.829c-0.337-0.175-0.735-0.264-1.194-0.264
				c-0.384,0-0.736,0.068-1.056,0.204c-0.32,0.137-0.604,0.34-0.849,0.609c-0.245,0.268-0.433,0.599-0.566,0.992
				c-0.133,0.391-0.199,0.831-0.199,1.317c0,0.653,0.109,1.228,0.327,1.727c0.217,0.499,0.529,0.886,0.934,1.163
				c0.407,0.277,0.88,0.416,1.422,0.416c0.45,0,0.84-0.091,1.165-0.273c0.327-0.182,0.615-0.447,0.864-0.796
				c-0.008,0.531-0.02,0.915-0.035,1.155c-0.016,0.24-0.07,0.464-0.163,0.673c-0.093,0.21-0.255,0.374-0.486,0.49
				c-0.231,0.117-0.557,0.175-0.977,0.175c-0.205,0-0.388-0.02-0.546-0.056c-0.159-0.038-0.294-0.095-0.406-0.171
				c-0.112-0.078-0.216-0.17-0.309-0.279c-0.093-0.109-0.183-0.217-0.27-0.324c-0.178-0.209-0.386-0.314-0.624-0.314
				c-0.189,0-0.352,0.062-0.486,0.187c-0.135,0.124-0.202,0.285-0.202,0.483c0,0.262,0.119,0.516,0.356,0.763
				c0.238,0.247,0.576,0.449,1.014,0.605c0.439,0.156,0.938,0.234,1.496,0.234c0.609,0,1.119-0.061,1.528-0.184
				c0.409-0.122,0.741-0.311,0.994-0.563c0.253-0.254,0.437-0.574,0.552-0.961c0.115-0.389,0.173-0.851,0.173-1.389v-4.706
				c0-0.384-0.051-0.678-0.155-0.882C204.146,471.951,203.938,471.849,203.626,471.849z M202.599,476.214
				c-0.151,0.29-0.345,0.508-0.586,0.653c-0.239,0.144-0.493,0.217-0.762,0.217c-0.455,0-0.826-0.168-1.113-0.505
				c-0.287-0.336-0.43-0.834-0.43-1.49c0-0.649,0.139-1.15,0.418-1.502s0.649-0.528,1.113-0.528c0.475,0,0.857,0.184,1.148,0.553
				c0.291,0.367,0.436,0.882,0.436,1.543C202.825,475.57,202.749,475.923,202.599,476.214z"/>
			<path id="XMLID_944_" style="fill:#FFFFFF;" d="M210.978,472.917c-0.165-0.339-0.417-0.602-0.753-0.788
				c-0.337-0.186-0.718-0.28-1.146-0.28c-0.439,0-0.827,0.088-1.166,0.264c-0.339,0.176-0.65,0.452-0.935,0.828v-0.196
				c0-0.193-0.034-0.358-0.104-0.493c-0.07-0.134-0.162-0.234-0.276-0.302c-0.115-0.068-0.244-0.101-0.387-0.101
				c-0.233,0-0.417,0.076-0.552,0.228c-0.134,0.153-0.201,0.383-0.201,0.692v4.682c0,0.317,0.076,0.56,0.226,0.73
				c0.15,0.17,0.342,0.255,0.576,0.255c0.241,0,0.438-0.082,0.59-0.246c0.152-0.164,0.228-0.411,0.228-0.74v-2.03
				c0-0.661,0.04-1.111,0.119-1.353c0.11-0.3,0.284-0.537,0.522-0.71c0.237-0.173,0.5-0.258,0.788-0.258
				c0.444,0,0.74,0.142,0.888,0.425c0.148,0.283,0.223,0.691,0.223,1.225v2.7c0,0.317,0.074,0.56,0.226,0.73
				c0.15,0.17,0.345,0.255,0.587,0.255c0.238,0,0.431-0.083,0.579-0.249c0.149-0.166,0.223-0.412,0.223-0.737v-3.015
				c0-0.356-0.016-0.648-0.048-0.878C211.155,473.329,211.085,473.115,210.978,472.917z"/>
			<path id="XMLID_939_" style="fill:#FFFFFF;" d="M217.821,475.36c0.234-0.122,0.35-0.385,0.35-0.793
				c0-0.438-0.113-0.87-0.338-1.294c-0.226-0.423-0.565-0.769-1.019-1.035c-0.453-0.268-0.995-0.4-1.628-0.4
				c-0.487,0-0.93,0.077-1.33,0.234c-0.4,0.157-0.736,0.381-1.009,0.674c-0.273,0.293-0.481,0.644-0.624,1.054
				c-0.142,0.409-0.214,0.853-0.214,1.332c0,1.017,0.289,1.822,0.867,2.415c0.578,0.592,1.387,0.89,2.427,0.89
				c0.455,0,0.858-0.059,1.208-0.178c0.35-0.12,0.64-0.268,0.871-0.448c0.232-0.18,0.405-0.368,0.52-0.564
				c0.115-0.197,0.172-0.367,0.172-0.514c0-0.166-0.051-0.294-0.154-0.386c-0.103-0.09-0.238-0.137-0.404-0.137
				c-0.154,0-0.273,0.035-0.356,0.107c-0.201,0.19-0.366,0.34-0.492,0.452c-0.128,0.111-0.266,0.215-0.416,0.312
				c-0.151,0.098-0.306,0.167-0.466,0.214c-0.161,0.045-0.338,0.067-0.532,0.067c-0.289,0-0.553-0.07-0.792-0.213
				c-0.239-0.142-0.431-0.354-0.575-0.635c-0.145-0.281-0.218-0.605-0.223-0.973h3.169
				C217.26,475.541,217.588,475.48,217.821,475.36z M213.667,474.621c0.055-0.546,0.212-0.959,0.471-1.238
				c0.259-0.28,0.591-0.418,0.995-0.418c0.423,0,0.765,0.137,1.024,0.412c0.259,0.275,0.409,0.69,0.448,1.244H213.667z"/>
			<path id="XMLID_936_" style="fill:#FFFFFF;" d="M224.207,469.44c-0.245,0-0.434,0.085-0.567,0.255
				c-0.132,0.17-0.2,0.421-0.2,0.753v2.392c-0.304-0.331-0.616-0.578-0.937-0.739c-0.32-0.159-0.714-0.24-1.181-0.24
				c-0.807,0-1.458,0.283-1.953,0.848c-0.495,0.566-0.741,1.356-0.741,2.369c0,0.478,0.062,0.923,0.187,1.335
				c0.124,0.412,0.307,0.77,0.549,1.074c0.241,0.305,0.527,0.539,0.857,0.703c0.33,0.164,0.689,0.246,1.077,0.246
				c0.293,0,0.563-0.04,0.81-0.122c0.247-0.081,0.476-0.199,0.688-0.356c0.211-0.156,0.426-0.359,0.643-0.608v0.16
				c0,0.297,0.073,0.525,0.217,0.685c0.145,0.161,0.328,0.241,0.549,0.241c0.226,0,0.41-0.077,0.552-0.231
				c0.143-0.154,0.214-0.386,0.214-0.695v-7.146c0-0.305-0.066-0.534-0.199-0.691C224.64,469.518,224.452,469.44,224.207,469.44z
				 M223.141,476.28c-0.14,0.306-0.328,0.533-0.564,0.682c-0.235,0.149-0.495,0.223-0.781,0.223c-0.281,0-0.54-0.079-0.776-0.236
				c-0.238-0.155-0.425-0.388-0.561-0.696c-0.137-0.309-0.205-0.682-0.205-1.122c0-0.415,0.064-0.781,0.193-1.095
				c0.129-0.315,0.31-0.556,0.543-0.724c0.233-0.168,0.499-0.253,0.795-0.253c0.285,0,0.547,0.082,0.787,0.246
				c0.239,0.165,0.43,0.402,0.57,0.712c0.14,0.311,0.21,0.682,0.21,1.114C223.352,475.589,223.281,475.973,223.141,476.28z"/>
			<path id="XMLID_933_" style="fill:#FFFFFF;" d="M233.586,472.243c-0.406-0.254-0.878-0.382-1.416-0.382
				c-0.467,0-0.859,0.084-1.175,0.252c-0.317,0.168-0.627,0.411-0.932,0.727v-2.475c0-0.297-0.068-0.524-0.202-0.685
				c-0.134-0.16-0.326-0.24-0.576-0.24c-0.237,0-0.423,0.084-0.555,0.252c-0.132,0.168-0.198,0.416-0.198,0.745v7.075
				c0,0.305,0.068,0.535,0.205,0.692c0.136,0.156,0.319,0.234,0.549,0.234c0.226,0,0.412-0.077,0.558-0.234
				c0.146-0.157,0.22-0.388,0.22-0.692v-0.16c0.178,0.205,0.322,0.361,0.43,0.463c0.109,0.103,0.241,0.203,0.395,0.3
				c0.154,0.098,0.341,0.175,0.561,0.234c0.22,0.06,0.454,0.089,0.704,0.089c0.407,0,0.781-0.082,1.118-0.246
				c0.338-0.164,0.626-0.397,0.864-0.698c0.237-0.3,0.418-0.656,0.543-1.065c0.125-0.41,0.187-0.859,0.187-1.35
				c0-0.665-0.112-1.241-0.336-1.725C234.305,472.869,233.991,472.499,233.586,472.243z M232.796,476.654
				c-0.295,0.355-0.646,0.532-1.053,0.532c-0.479,0-0.866-0.174-1.161-0.521c-0.295-0.346-0.442-0.841-0.442-1.487
				c0-0.439,0.069-0.818,0.208-1.136c0.138-0.319,0.328-0.562,0.57-0.73c0.24-0.168,0.516-0.253,0.825-0.253
				c0.3,0,0.564,0.085,0.79,0.253c0.225,0.168,0.399,0.406,0.522,0.715c0.123,0.308,0.184,0.677,0.184,1.104
				C233.238,475.792,233.09,476.299,232.796,476.654z"/>
			<path id="XMLID_931_" style="fill:#FFFFFF;" d="M240.529,471.947c-0.112-0.066-0.23-0.098-0.353-0.098
				c-0.171,0-0.303,0.03-0.395,0.09c-0.093,0.058-0.181,0.173-0.264,0.344c-0.083,0.17-0.176,0.406-0.279,0.706l-1.3,3.71
				l-1.371-3.988c-0.091-0.277-0.195-0.489-0.314-0.638c-0.119-0.148-0.295-0.223-0.529-0.223c-0.135,0-0.264,0.035-0.389,0.107
				c-0.124,0.071-0.222,0.166-0.294,0.285c-0.071,0.118-0.107,0.247-0.107,0.385c0,0.131,0.062,0.341,0.184,0.629l1.994,5.022
				l-0.148,0.362c-0.111,0.265-0.209,0.466-0.294,0.601c-0.085,0.138-0.181,0.234-0.288,0.289c-0.107,0.056-0.254,0.084-0.44,0.084
				c-0.074,0-0.163-0.012-0.266-0.035c-0.083-0.024-0.168-0.037-0.256-0.037c-0.221,0-0.388,0.051-0.5,0.152
				c-0.114,0.101-0.17,0.245-0.17,0.43c0,0.273,0.118,0.461,0.356,0.564c0.237,0.103,0.593,0.154,1.068,0.154
				c0.487,0,0.873-0.074,1.161-0.223c0.287-0.148,0.517-0.361,0.691-0.638c0.174-0.277,0.353-0.658,0.535-1.145l2.113-5.532
				c0.051-0.142,0.095-0.283,0.13-0.421c0.037-0.139,0.061-0.246,0.078-0.321c0-0.123-0.032-0.239-0.093-0.35
				C240.729,472.1,240.642,472.012,240.529,471.947z"/>
		</g>
		<g id="XMLID_365_">
			<g id="XMLID_380_">
				<path id="XMLID_928_" style="fill:#FFFFFF;" d="M262.93,469.435c-0.533,0-0.954,0.069-1.26,0.204
					c-0.307,0.137-0.527,0.354-0.654,0.652c-0.129,0.301-0.191,0.703-0.191,1.211v0.487h-0.387c-0.543,0-0.815,0.192-0.815,0.582
					c0,0.174,0.066,0.316,0.196,0.423c0.132,0.111,0.316,0.164,0.558,0.164h0.447v4.294c0,0.319,0.074,0.563,0.227,0.73
					c0.154,0.17,0.344,0.254,0.574,0.254c0.243,0,0.438-0.084,0.589-0.254c0.156-0.167,0.231-0.411,0.231-0.73v-4.294h0.395
					c0.29,0,0.517-0.035,0.68-0.107c0.166-0.071,0.245-0.24,0.245-0.502c0-0.374-0.306-0.56-0.926-0.56h-0.395v-0.386
					c0-0.322,0.043-0.568,0.122-0.74c0.087-0.171,0.273-0.259,0.566-0.259c0.107,0,0.241,0.014,0.389,0.034
					c0.156,0.026,0.267,0.038,0.33,0.038c0.134,0,0.252-0.054,0.348-0.16c0.101-0.107,0.15-0.236,0.15-0.384
					C264.35,469.665,263.879,469.435,262.93,469.435z"/>
				<path id="XMLID_926_" style="fill:#FFFFFF;" d="M268.089,472.101c-0.32-0.171-0.648-0.255-0.99-0.255
					c-0.342,0-0.611,0.084-0.818,0.255c-0.203,0.171-0.4,0.421-0.592,0.755c-0.014-0.334-0.08-0.584-0.198-0.755
					c-0.119-0.171-0.312-0.255-0.583-0.255c-0.525,0-0.788,0.364-0.788,1.093v4.513c0,0.323,0.078,0.569,0.225,0.733
					c0.15,0.168,0.34,0.25,0.579,0.25c0.237,0,0.432-0.08,0.586-0.246c0.151-0.163,0.234-0.41,0.234-0.737v-1.355
					c0-0.486,0.014-0.899,0.045-1.239c0.034-0.336,0.09-0.63,0.17-0.878c0.084-0.243,0.201-0.425,0.353-0.553
					c0.149-0.122,0.345-0.186,0.582-0.186c0.172,0,0.374,0.037,0.602,0.108c0.226,0.073,0.37,0.112,0.433,0.112
					c0.157,0,0.304-0.064,0.441-0.195c0.135-0.126,0.204-0.292,0.204-0.488C268.571,472.499,268.411,472.272,268.089,472.101z"/>
				<path id="XMLID_922_" style="fill:#FFFFFF;" d="M274.176,475.358c0.233-0.122,0.351-0.386,0.351-0.791
					c0-0.441-0.113-0.87-0.339-1.296c-0.222-0.424-0.566-0.77-1.018-1.034c-0.453-0.27-0.997-0.403-1.629-0.403
					c-0.488,0-0.931,0.078-1.33,0.233c-0.402,0.156-0.735,0.38-1.007,0.674c-0.276,0.295-0.484,0.643-0.624,1.055
					c-0.144,0.41-0.217,0.855-0.217,1.333c0,1.017,0.292,1.823,0.87,2.418c0.577,0.593,1.385,0.888,2.429,0.888
					c0.453,0,0.857-0.06,1.207-0.179c0.349-0.117,0.639-0.268,0.874-0.446c0.233-0.182,0.405-0.368,0.522-0.566
					c0.112-0.195,0.167-0.365,0.167-0.512c0-0.167-0.048-0.293-0.152-0.386c-0.105-0.092-0.238-0.139-0.406-0.139
					c-0.152,0-0.271,0.038-0.355,0.109c-0.202,0.189-0.367,0.34-0.494,0.449c-0.128,0.113-0.264,0.217-0.415,0.312
					c-0.15,0.097-0.307,0.17-0.466,0.213c-0.16,0.048-0.336,0.069-0.531,0.069c-0.29,0-0.552-0.069-0.793-0.212
					c-0.24-0.145-0.431-0.356-0.578-0.635c-0.144-0.281-0.216-0.607-0.221-0.974h3.171
					C273.615,475.539,273.943,475.479,274.176,475.358z M270.021,474.618c0.054-0.546,0.213-0.957,0.472-1.236
					c0.259-0.28,0.591-0.417,0.995-0.417c0.426,0,0.764,0.136,1.025,0.413c0.26,0.273,0.407,0.688,0.446,1.241H270.021z"/>
				<path id="XMLID_919_" style="fill:#FFFFFF;" d="M280.916,475.358c0.231-0.122,0.351-0.386,0.351-0.791
					c0-0.441-0.116-0.87-0.34-1.296c-0.222-0.424-0.563-0.77-1.013-1.034c-0.46-0.27-1.003-0.403-1.633-0.403
					c-0.486,0-0.932,0.078-1.33,0.233c-0.401,0.156-0.736,0.38-1.009,0.674c-0.273,0.295-0.481,0.643-0.622,1.055
					c-0.145,0.41-0.217,0.855-0.217,1.333c0,1.017,0.29,1.823,0.868,2.418c0.58,0.593,1.387,0.888,2.429,0.888
					c0.453,0,0.86-0.06,1.208-0.179c0.347-0.117,0.641-0.268,0.872-0.446c0.234-0.182,0.408-0.368,0.519-0.566
					c0.117-0.195,0.171-0.365,0.171-0.512c0-0.167-0.047-0.293-0.15-0.386c-0.104-0.092-0.238-0.139-0.406-0.139
					c-0.151,0-0.27,0.038-0.355,0.109c-0.203,0.189-0.368,0.34-0.492,0.449c-0.128,0.113-0.264,0.217-0.415,0.312
					c-0.152,0.097-0.307,0.17-0.469,0.213c-0.157,0.048-0.336,0.069-0.528,0.069c-0.291,0-0.555-0.069-0.795-0.212
					c-0.239-0.145-0.431-0.356-0.575-0.635c-0.144-0.281-0.218-0.607-0.222-0.974h3.17
					C280.354,475.539,280.682,475.479,280.916,475.358z M276.762,474.618c0.053-0.546,0.211-0.957,0.469-1.236
					c0.261-0.28,0.592-0.417,0.995-0.417c0.425,0,0.763,0.136,1.027,0.413c0.257,0.273,0.407,0.688,0.447,1.241H276.762z"/>
				<path id="XMLID_390_" style="fill:#FFFFFF;" d="M286.926,472.243c-0.42-0.256-0.882-0.386-1.379-0.386
					c-0.415,0-0.79,0.089-1.114,0.267c-0.331,0.176-0.649,0.452-0.952,0.827v-0.195c0-0.296-0.071-0.519-0.218-0.677
					c-0.143-0.156-0.329-0.234-0.56-0.234c-0.233,0-0.419,0.078-0.553,0.228c-0.134,0.155-0.2,0.382-0.2,0.692v6.995
					c0,0.354,0.051,0.62,0.146,0.807c0.102,0.183,0.301,0.275,0.607,0.275c0.518,0,0.778-0.359,0.778-1.068v-2.433
					c0.287,0.358,0.586,0.634,0.901,0.816c0.314,0.187,0.704,0.279,1.165,0.279c0.385,0,0.741-0.076,1.079-0.227
					c0.334-0.153,0.622-0.372,0.868-0.654c0.245-0.283,0.441-0.632,0.58-1.05c0.14-0.419,0.21-0.878,0.21-1.376
					c0-0.677-0.122-1.261-0.366-1.758C287.675,472.878,287.346,472.502,286.926,472.243z M286.451,476.246
					c-0.137,0.313-0.32,0.546-0.552,0.704c-0.229,0.154-0.48,0.233-0.748,0.233c-0.454,0-0.828-0.179-1.133-0.536
					c-0.306-0.358-0.46-0.862-0.46-1.504c0-0.686,0.154-1.204,0.462-1.558c0.306-0.35,0.684-0.527,1.13-0.527
					c0.281,0,0.541,0.084,0.77,0.248c0.229,0.163,0.411,0.397,0.541,0.705c0.13,0.306,0.197,0.674,0.197,1.101
					C286.658,475.554,286.589,475.932,286.451,476.246z"/>
				<path id="XMLID_389_" style="fill:#FFFFFF;" d="M289.9,471.846c-0.238,0-0.428,0.079-0.58,0.245
					c-0.146,0.162-0.222,0.403-0.222,0.721v4.641c0,0.313,0.076,0.555,0.222,0.729c0.152,0.17,0.342,0.254,0.58,0.254
					c0.238,0,0.432-0.082,0.588-0.25c0.154-0.165,0.231-0.41,0.231-0.732v-4.688c0-0.287-0.078-0.513-0.231-0.675
					C290.332,471.925,290.138,471.846,289.9,471.846z"/>
				<path id="XMLID_388_" style="fill:#FFFFFF;" d="M289.917,469.505c-0.217,0-0.408,0.076-0.571,0.223
					c-0.166,0.15-0.248,0.339-0.248,0.568c0,0.253,0.081,0.447,0.242,0.586c0.159,0.138,0.35,0.209,0.577,0.209
					c0.22,0,0.408-0.071,0.566-0.209c0.157-0.14,0.236-0.335,0.236-0.585c0-0.257-0.082-0.454-0.244-0.591
					C290.314,469.573,290.13,469.505,289.917,469.505z"/>
				<path id="XMLID_387_" style="fill:#FFFFFF;" d="M297.258,476.875l-1.662-2.614l0.86-0.789c0.438-0.396,0.659-0.714,0.659-0.951
					c0-0.192-0.068-0.355-0.2-0.483c-0.139-0.128-0.306-0.193-0.51-0.193c-0.168,0-0.312,0.043-0.431,0.13
					c-0.121,0.086-0.29,0.251-0.517,0.486l-1.822,1.914v-3.933c0-0.329-0.074-0.581-0.221-0.751
					c-0.148-0.172-0.344-0.258-0.593-0.258c-0.255,0-0.457,0.093-0.596,0.283c-0.135,0.189-0.207,0.462-0.207,0.821v6.913
					c0,0.323,0.073,0.569,0.215,0.733c0.141,0.168,0.339,0.25,0.588,0.25c0.213,0,0.406-0.084,0.566-0.254
					c0.165-0.167,0.248-0.406,0.248-0.718v-1.291l0.88-0.83l1.427,2.353c0.181,0.278,0.33,0.471,0.436,0.58
					c0.106,0.109,0.26,0.16,0.458,0.16c0.226,0,0.413-0.073,0.553-0.221c0.142-0.151,0.214-0.352,0.214-0.61
					c0-0.089-0.029-0.19-0.082-0.289C297.47,477.215,297.379,477.071,297.258,476.875z"/>
				<path id="XMLID_386_" style="fill:#FFFFFF;" d="M299.45,476.649c-0.25,0-0.458,0.087-0.63,0.261
					c-0.17,0.173-0.256,0.381-0.256,0.622c0,0.287,0.09,0.51,0.268,0.665c0.179,0.159,0.389,0.238,0.633,0.238
					c0.237,0,0.444-0.079,0.624-0.241c0.174-0.157,0.264-0.379,0.264-0.662c0-0.243-0.089-0.454-0.264-0.626
					C299.909,476.735,299.698,476.649,299.45,476.649z"/>
				<path id="XMLID_385_" style="fill:#FFFFFF;" d="M306.835,475.722c-0.167,0-0.308,0.054-0.422,0.156
					c-0.113,0.104-0.219,0.245-0.318,0.427c-0.178,0.309-0.381,0.538-0.616,0.689c-0.231,0.15-0.509,0.225-0.835,0.225
					c-0.24,0-0.463-0.045-0.665-0.141c-0.201-0.093-0.372-0.229-0.516-0.409c-0.143-0.18-0.252-0.398-0.325-0.652
					c-0.075-0.256-0.114-0.537-0.114-0.842c0-0.646,0.147-1.161,0.439-1.534c0.294-0.375,0.682-0.561,1.158-0.561
					c0.333,0,0.607,0.075,0.821,0.227c0.219,0.148,0.424,0.375,0.622,0.674c0.109,0.158,0.209,0.269,0.299,0.339
					c0.09,0.068,0.201,0.104,0.338,0.104c0.202,0,0.377-0.068,0.524-0.203c0.143-0.135,0.214-0.3,0.214-0.492
					s-0.063-0.397-0.192-0.617c-0.128-0.218-0.314-0.423-0.556-0.62c-0.245-0.192-0.54-0.352-0.89-0.474
					c-0.353-0.123-0.737-0.184-1.157-0.184c-0.674,0-1.26,0.138-1.746,0.419c-0.486,0.279-0.859,0.674-1.113,1.183
					c-0.259,0.511-0.387,1.098-0.387,1.765c0,0.981,0.281,1.764,0.841,2.349c0.562,0.582,1.344,0.876,2.348,0.876
					c0.469,0,0.893-0.065,1.269-0.192c0.377-0.126,0.688-0.295,0.934-0.502c0.248-0.207,0.434-0.425,0.554-0.656
					c0.121-0.229,0.182-0.446,0.182-0.646c0-0.169-0.066-0.331-0.198-0.481C307.198,475.799,307.033,475.722,306.835,475.722z"/>
				<path id="XMLID_382_" style="fill:#FFFFFF;" d="M313.647,472.759c-0.288-0.29-0.629-0.518-1.027-0.674
					c-0.4-0.161-0.846-0.239-1.336-0.239c-0.483,0-0.924,0.078-1.326,0.234c-0.399,0.158-0.737,0.38-1.019,0.669
					c-0.281,0.288-0.498,0.636-0.649,1.045c-0.146,0.408-0.224,0.858-0.224,1.349c0,0.485,0.076,0.929,0.219,1.332
					c0.152,0.402,0.369,0.75,0.657,1.048c0.285,0.292,0.627,0.521,1.016,0.676c0.392,0.159,0.835,0.239,1.326,0.239
					c0.492,0,0.937-0.08,1.336-0.234c0.394-0.158,0.735-0.382,1.02-0.675c0.286-0.291,0.502-0.641,0.656-1.05
					c0.146-0.408,0.222-0.855,0.222-1.336c0-0.489-0.075-0.932-0.221-1.339C314.148,473.402,313.933,473.055,313.647,472.759z
					 M312.455,476.674c-0.29,0.372-0.682,0.557-1.171,0.557c-0.324,0-0.605-0.086-0.846-0.253c-0.24-0.168-0.423-0.409-0.553-0.729
					c-0.129-0.317-0.194-0.684-0.194-1.108c0-0.428,0.066-0.803,0.197-1.125c0.131-0.321,0.314-0.563,0.556-0.727
					c0.242-0.163,0.522-0.246,0.84-0.246c0.489,0,0.881,0.182,1.171,0.555c0.289,0.367,0.436,0.881,0.436,1.543
					C312.891,475.793,312.744,476.305,312.455,476.674z"/>
				<path id="XMLID_381_" style="fill:#FFFFFF;" d="M323.569,472.119c-0.32-0.173-0.705-0.262-1.146-0.262
					c-0.381,0-0.726,0.081-1.039,0.241c-0.313,0.161-0.607,0.408-0.881,0.738c-0.191-0.326-0.431-0.572-0.725-0.735
					c-0.292-0.162-0.641-0.243-1.048-0.243c-0.394,0-0.748,0.079-1.07,0.241c-0.319,0.156-0.619,0.403-0.903,0.738v-0.153
					c0-0.261-0.074-0.466-0.222-0.616c-0.15-0.145-0.334-0.221-0.557-0.221c-0.227,0-0.412,0.078-0.555,0.239
					c-0.14,0.157-0.21,0.389-0.21,0.694v4.636c0,0.336,0.078,0.591,0.235,0.765c0.156,0.171,0.357,0.258,0.604,0.258
					c0.248,0,0.447-0.087,0.603-0.258c0.15-0.173,0.226-0.428,0.226-0.765v-2.188c0-0.684,0.086-1.206,0.253-1.566
					c0.168-0.369,0.516-0.551,1.048-0.551c0.263,0,0.459,0.072,0.581,0.22c0.122,0.142,0.198,0.331,0.226,0.552
					c0.027,0.226,0.04,0.544,0.04,0.953v2.581c0,0.341,0.078,0.594,0.232,0.767c0.148,0.17,0.349,0.255,0.594,0.255
					c0.254,0,0.455-0.085,0.611-0.255c0.156-0.173,0.231-0.426,0.231-0.767v-2.154c0-0.694,0.062-1.178,0.178-1.452
					c0.109-0.209,0.259-0.383,0.45-0.508c0.192-0.125,0.395-0.192,0.609-0.192c0.264,0,0.463,0.072,0.596,0.215
					c0.128,0.142,0.209,0.319,0.239,0.529c0.029,0.209,0.043,0.486,0.043,0.836v2.725c0,0.336,0.079,0.591,0.235,0.765
					c0.157,0.171,0.356,0.258,0.603,0.258c0.253,0,0.458-0.085,0.612-0.255c0.154-0.173,0.229-0.426,0.229-0.767v-3.163
					c0-0.629-0.068-1.09-0.206-1.385C324.128,472.543,323.888,472.293,323.569,472.119z"/>
			</g>
			<g id="XMLID_366_">
				<path id="XMLID_379_" style="fill:#FFFFFF;" d="M245.273,474.75c-0.001-0.004-0.001-0.006-0.001-0.011
					C245.272,474.744,245.272,474.746,245.273,474.75z"/>
				<path id="XMLID_378_" style="fill:#FFFFFF;" d="M245.355,475.267c0.001,0,0.001,0,0.001,0c-0.031-0.147-0.055-0.294-0.073-0.438
					C245.301,474.975,245.326,475.122,245.355,475.267z"/>
				<path id="XMLID_377_" style="fill:#FFFFFF;" d="M245.891,476.771c-0.004-0.006-0.007-0.013-0.01-0.021
					C245.885,476.758,245.888,476.765,245.891,476.771z"/>
				<path id="XMLID_376_" style="fill:#FFFFFF;" d="M245.84,476.671c-0.014-0.027-0.027-0.056-0.041-0.084
					C245.813,476.617,245.826,476.644,245.84,476.671z"/>
				<path id="XMLID_375_" style="fill:#FFFFFF;" d="M245.506,475.847c0.079,0.25,0.175,0.492,0.286,0.724
					c-0.113-0.236-0.206-0.479-0.284-0.724H245.506z"/>
				<path id="XMLID_374_" style="fill:#FFFFFF;" d="M250.736,467.987l-0.076-0.259c0.299-0.063,0.524-0.329,0.524-0.646
					c0-0.364-0.297-0.659-0.66-0.659c-0.365,0-0.66,0.295-0.66,0.659c0,0.317,0.225,0.583,0.522,0.646l0.084,0.289
					c-1.021,0.14-1.834,0.539-1.834,0.539l0.144,0.441c0.618-0.206,1.153-0.331,1.64-0.383c0.476-0.051,0.834-0.073,1.126-0.073
					c0.314,0,0.544,0.025,0.809,0.069l0.075-0.476C252.429,468.134,251.698,467.908,250.736,467.987z"/>
				<path id="XMLID_373_" style="fill:#FFFFFF;" d="M245.453,470.494c-0.017,0.024-0.497,0.465-0.876,1.28
					c-0.016-0.026-0.035-0.051-0.056-0.074c-0.113-0.124-0.272-0.187-0.473-0.184c-0.002,0-0.006,0-0.01,0
					c-0.124,0-0.21-0.042-0.266-0.092c0.055-0.071,0.089-0.16,0.089-0.258c0-0.231-0.187-0.419-0.419-0.419
					c-0.23,0-0.417,0.188-0.417,0.419c0,0.231,0.187,0.417,0.417,0.417c0.037,0,0.071-0.006,0.105-0.012
					c0.102,0.113,0.265,0.214,0.504,0.209c0.123-0.001,0.214,0.03,0.273,0.097c0.07,0.076,0.093,0.185,0.1,0.267
					c-0.001,0.002-0.001,0.004-0.002,0.004c-0.272,0.743-0.195,1.668-0.195,1.668l0.661,0.026c0.013-0.336,0.062-0.926,0.232-1.393
					c0.328-0.906,0.741-1.472,0.757-1.496l0.004-0.005c0.024-0.031,0.047-0.06,0.071-0.089l-0.196-0.142L245.453,470.494z"/>
				<path id="XMLID_372_" style="fill:#FFFFFF;" d="M257.294,469.093c-0.23,0-0.418,0.187-0.418,0.417
					c0,0.037,0.006,0.071,0.015,0.104c-0.115,0.104-0.214,0.267-0.211,0.507c0.002,0.123-0.03,0.212-0.096,0.273
					c-0.053,0.047-0.12,0.072-0.185,0.088c-0.492-0.689-1.097-1.109-1.097-1.109l-0.474,0.508c0.358,0.326,0.724,0.734,1.08,1.244
					c0.246,0.352,0.499,0.806,0.71,1.259l0.64-0.304c0,0-0.292-0.722-0.704-1.369c0.071-0.025,0.143-0.064,0.207-0.12
					c0.125-0.113,0.187-0.273,0.183-0.474c-0.001-0.13,0.042-0.218,0.093-0.276c0.071,0.054,0.16,0.089,0.257,0.089
					c0.232,0,0.419-0.187,0.419-0.419C257.712,469.28,257.525,469.093,257.294,469.093z"/>
				<path id="XMLID_371_" style="fill:#FFFFFF;" d="M255.633,474.843c-0.88,0.429-2.33,0.996-4.237,1.262
					c-0.749,0.104-1.474,0.142-2.143,0.142c-0.869,0-1.637-0.065-2.226-0.139c-0.672-0.085-1.198-0.189-1.52-0.261
					c0.078,0.245,0.171,0.488,0.284,0.724c0.002,0.006,0.005,0.013,0.008,0.017c0.014,0.027,0.027,0.056,0.041,0.084
					c0.013,0.027,0.027,0.054,0.041,0.079c0.004,0.007,0.007,0.015,0.01,0.021c0.189,0.357,0.417,0.684,0.675,0.968
					c0.9,0.984,1.816,1.139,1.825,1.141l0.015,0.002l0.013,0.005c0.009,0.003,0.821,0.265,2.057,0.265
					c1.216,0,2.409-0.245,3.545-0.729c0.842-0.431,1.639-1.085,2.033-1.668c0.305-0.452,0.526-0.934,0.656-1.434
					c0.07-0.266,0.125-0.693,0.092-1.141C256.555,474.348,256.163,474.585,255.633,474.843z"/>
				<path id="XMLID_367_" style="fill:#FFFFFF;" d="M252.322,468.961c-0.264-0.043-0.477-0.068-0.777-0.068
					c-0.279,0-0.626,0.023-1.089,0.071c-0.465,0.049-0.982,0.171-1.583,0.373c-0.842,0.282-1.604,0.724-2.204,1.28l-0.02,0.019
					c-0.089,0.081-0.275,0.254-0.488,0.526c-0.026,0.037-0.408,0.578-0.709,1.408c-0.226,0.622-0.216,1.527-0.216,1.537v0.002
					c0,0.212,0.012,0.423,0.035,0.632c0,0.005,0,0.007,0.001,0.011c0.003,0.027,0.007,0.052,0.01,0.079
					c0.018,0.144,0.043,0.291,0.074,0.438c0.438,0.112,3.048,0.721,5.966,0.314c1.829-0.255,3.218-0.795,4.061-1.204
					c0.701-0.34,1.151-0.647,1.325-0.774c-0.173-0.643-0.651-1.65-1.089-2.279C254.367,469.535,253.016,469.075,252.322,468.961z
					 M248.679,474.22c-0.971,0-1.759-0.787-1.759-1.759c0-0.972,0.788-1.76,1.759-1.76c0.973,0,1.761,0.788,1.761,1.76
					C250.439,473.433,249.652,474.22,248.679,474.22z M253.829,472.923c-0.601,0-1.089-0.489-1.089-1.09
					c0-0.602,0.487-1.089,1.089-1.089c0.601,0,1.089,0.488,1.089,1.089C254.918,472.434,254.429,472.923,253.829,472.923z"/>
			</g>
		</g>
	</g>
</g>
</svg>
