<?xml version="1.0" encoding="UTF-8"?><svg xmlns="http://www.w3.org/2000/svg" xmlns:xlink="http://www.w3.org/1999/xlink" viewBox="0 0 278.74 378.29"><defs><style>.cls-1{fill:#b7b7b7;}.cls-1,.cls-2,.cls-3,.cls-4,.cls-5,.cls-6,.cls-7,.cls-8,.cls-9,.cls-10,.cls-11,.cls-12,.cls-13,.cls-14,.cls-15,.cls-16,.cls-17,.cls-18,.cls-19,.cls-20,.cls-21,.cls-22,.cls-23{stroke-width:0px;}.cls-24{filter:url(#luminosity-noclip-9);}.cls-25{filter:url(#luminosity-noclip-7);}.cls-26{filter:url(#luminosity-noclip-3);}.cls-27{filter:url(#luminosity-noclip-5);}.cls-2{fill:#606060;}.cls-28{mask:url(#mask);}.cls-3{fill:#c5c5c5;}.cls-4{fill:#9a9a9a;}.cls-29{filter:url(#luminosity-noclip);}.cls-5{fill:url(#radial-gradient);}.cls-5,.cls-30,.cls-16,.cls-17,.cls-18,.cls-19,.cls-20,.cls-21{mix-blend-mode:multiply;}.cls-6{fill:#8b8b8b;}.cls-7{fill:#000;}.cls-8{fill:#6e6e6e;}.cls-9{fill:#a8a8a8;}.cls-10{fill:url(#radial-gradient-6);}.cls-11{fill:url(#radial-gradient-8);}.cls-12{fill:#d4d4d4;}.cls-13{fill:#7d7d7d;}.cls-14{fill:url(#radial-gradient-10);mix-blend-mode:screen;}.cls-15{fill:#e2e2e2;}.cls-16{fill:url(#radial-gradient-5);}.cls-17{fill:url(#radial-gradient-3);}.cls-18{fill:url(#radial-gradient-7);}.cls-19{fill:url(#radial-gradient-9);}.cls-20{fill:url(#radial-gradient-4);}.cls-21{fill:url(#radial-gradient-2);}.cls-31{isolation:isolate;}.cls-22{fill:#fff;}.cls-32{mask:url(#mask-3);}.cls-33{mask:url(#mask-2);}.cls-34{mask:url(#mask-5);}.cls-35{mask:url(#mask-4);}.cls-36{mask:url(#mask-1);}.cls-37{mask:url(#mask-7);}.cls-38{mask:url(#mask-6);}.cls-39{mask:url(#mask-8);}.cls-40{mask:url(#mask-9);}.cls-23{fill:#f1f1f1;}</style><filter id="luminosity-noclip" x="9.51" y="197.55" width="248.89" height="160.4" color-interpolation-filters="sRGB" filterUnits="userSpaceOnUse"><feFlood flood-color="#fff" result="bg"/><feBlend in="SourceGraphic" in2="bg"/></filter><filter id="luminosity-noclip-2" x="9.51" y="-8381.04" width="248.89" height="32766" color-interpolation-filters="sRGB" filterUnits="userSpaceOnUse"><feFlood flood-color="#fff" result="bg"/><feBlend in="SourceGraphic" in2="bg"/></filter><mask id="mask-1" x="9.51" y="-8381.04" width="248.89" height="32766" maskUnits="userSpaceOnUse"/><radialGradient id="radial-gradient" cx="130.1" cy="-109.29" fx="130.1" fy="-109.29" r="503.87" gradientUnits="userSpaceOnUse"><stop offset=".62" stop-color="#000"/><stop offset=".75" stop-color="#010101"/><stop offset=".8" stop-color="#080808"/><stop offset=".84" stop-color="#141414"/><stop offset=".87" stop-color="#262626"/><stop offset=".9" stop-color="#3c3c3c"/><stop offset=".92" stop-color="#585858"/><stop offset=".94" stop-color="#797979"/><stop offset=".96" stop-color="#9f9f9f"/><stop offset=".98" stop-color="#cacaca"/><stop offset="1" stop-color="#f9f9f9"/><stop offset="1" stop-color="#fff"/></radialGradient><mask id="mask" x="9.51" y="197.55" width="248.89" height="160.4" maskUnits="userSpaceOnUse"><g class="cls-29"><g class="cls-36"><path class="cls-5" d="M156.26,197.56c-48.92.01-97.83.03-146.75.05v147.32c0,12.75,9.63,13.01,9.63,13.01h229.62s9.63-.26,9.63-13.01v-147.39c-34.05,0-68.09,0-102.14.01Z"/></g></g></mask><radialGradient id="radial-gradient-2" cx="130.1" cy="-109.29" fx="130.1" fy="-109.29" r="503.87" gradientUnits="userSpaceOnUse"><stop offset=".62" stop-color="#fff"/><stop offset=".79" stop-color="#fdfdfd"/><stop offset=".85" stop-color="#f6f6f6"/><stop offset=".9" stop-color="#eaeaea"/><stop offset=".94" stop-color="#d8d8d8"/><stop offset=".97" stop-color="#c2c2c2"/><stop offset="1" stop-color="#ababab"/></radialGradient><filter id="luminosity-noclip-3" x="9.51" y="9.5" width="248.89" height="173.94" color-interpolation-filters="sRGB" filterUnits="userSpaceOnUse"><feFlood flood-color="#fff" result="bg"/><feBlend in="SourceGraphic" in2="bg"/></filter><filter id="luminosity-noclip-4" x="9.51" y="-8381.04" width="248.89" height="32766" color-interpolation-filters="sRGB" filterUnits="userSpaceOnUse"><feFlood flood-color="#fff" result="bg"/><feBlend in="SourceGraphic" in2="bg"/></filter><mask id="mask-3" x="9.51" y="-8381.04" width="248.89" height="32766" maskUnits="userSpaceOnUse"/><radialGradient id="radial-gradient-3" cx="135.09" cy="331.05" fx="135.09" fy="331.05" r="361.05" gradientUnits="userSpaceOnUse"><stop offset=".62" stop-color="#000"/><stop offset=".71" stop-color="#020202"/><stop offset=".76" stop-color="#0a0a0a"/><stop offset=".8" stop-color="#181818"/><stop offset=".84" stop-color="#2c2c2c"/><stop offset=".88" stop-color="#454545"/><stop offset=".91" stop-color="#646464"/><stop offset=".94" stop-color="#8a8a8a"/><stop offset=".96" stop-color="#b5b5b5"/><stop offset=".99" stop-color="#e5e5e5"/><stop offset="1" stop-color="#fff"/></radialGradient><mask id="mask-2" x="9.51" y="9.5" width="248.89" height="173.94" maskUnits="userSpaceOnUse"><g class="cls-26"><g class="cls-32"><path class="cls-17" d="M9.51,183.35c20.95.02,41.89.03,62.84.04,60.36.03,120.72.04,181.09.05,1.66,0,3.31,0,4.97,0V22.51c0-12.75-9.63-13.01-9.63-13.01H19.14s-9.63.26-9.63,13.01v86.91s0,73.92,0,73.92Z"/></g></g></mask><radialGradient id="radial-gradient-4" cx="135.09" cy="331.05" fx="135.09" fy="331.05" r="361.05" gradientUnits="userSpaceOnUse"><stop offset=".62" stop-color="#fff"/><stop offset=".75" stop-color="#fcfcfc"/><stop offset=".82" stop-color="#f4f4f4"/><stop offset=".88" stop-color="#e6e6e6"/><stop offset=".93" stop-color="#d3d3d3"/><stop offset=".98" stop-color="#b9b9b9"/><stop offset="1" stop-color="#ababab"/></radialGradient><filter id="luminosity-noclip-5" x="14.09" y="9.5" width="244.31" height="348.45" color-interpolation-filters="sRGB" filterUnits="userSpaceOnUse"><feFlood flood-color="#fff" result="bg"/><feBlend in="SourceGraphic" in2="bg"/></filter><filter id="luminosity-noclip-6" x="14.09" y="-8381.04" width="244.31" height="32766" color-interpolation-filters="sRGB" filterUnits="userSpaceOnUse"><feFlood flood-color="#fff" result="bg"/><feBlend in="SourceGraphic" in2="bg"/></filter><mask id="mask-5" x="14.09" y="-8381.04" width="244.31" height="32766" maskUnits="userSpaceOnUse"/><radialGradient id="radial-gradient-5" cx="-1.14" cy="9.34" fx="-1.14" fy="9.34" r="400.89" gradientUnits="userSpaceOnUse"><stop offset=".1" stop-color="#000"/><stop offset="1" stop-color="#fff"/></radialGradient><mask id="mask-4" x="14.09" y="9.5" width="244.31" height="348.45" maskUnits="userSpaceOnUse"><g class="cls-27"><g class="cls-34"><path class="cls-16" d="M257.9,22.49v321.96c0,12.73-9.64,12.99-9.64,12.99H18.39s-2.08-.06-4.3-1.39c2.48,1.82,5.05,1.9,5.05,1.9h229.63s9.63-.26,9.63-13.01V22.51c0-12.75-9.63-13.01-9.63-13.01h-.51s9.64.26,9.64,12.99Z"/></g></g></mask><radialGradient id="radial-gradient-6" cx="-1.14" cy="9.34" fx="-1.14" fy="9.34" r="400.89" gradientUnits="userSpaceOnUse"><stop offset=".1" stop-color="#fff"/><stop offset="1" stop-color="#ababab"/></radialGradient><filter id="luminosity-noclip-7" x="9.5" y="34.68" width=".5" height="300.45" color-interpolation-filters="sRGB" filterUnits="userSpaceOnUse"><feFlood flood-color="#fff" result="bg"/><feBlend in="SourceGraphic" in2="bg"/></filter><filter id="luminosity-noclip-8" x="9.5" y="-8381.04" width=".5" height="32766" color-interpolation-filters="sRGB" filterUnits="userSpaceOnUse"><feFlood flood-color="#fff" result="bg"/><feBlend in="SourceGraphic" in2="bg"/></filter><mask id="mask-7" x="9.5" y="-8381.04" width=".5" height="32766" maskUnits="userSpaceOnUse"/><radialGradient id="radial-gradient-7" cx="333.77" cy="9.34" fx="333.77" fy="9.34" r="400.86" gradientTransform="translate(602.75) rotate(-180) scale(1 -1)" xlink:href="#radial-gradient-5"/><mask id="mask-6" x="9.5" y="34.68" width=".5" height="300.45" maskUnits="userSpaceOnUse"><g class="cls-25"><g class="cls-37"><path class="cls-18" d="M9.5,34.68v300.45c.17-.61.33-1.22.5-1.83v-75.65s0-217.53,0-217.53c-.17-1.82-.34-3.63-.5-5.45Z"/></g></g></mask><radialGradient id="radial-gradient-8" cx="333.77" cy="9.34" fx="333.77" fy="9.34" r="400.86" gradientTransform="translate(602.75) rotate(-180) scale(1 -1)" xlink:href="#radial-gradient-6"/><filter id="luminosity-noclip-9" x="9.51" y="9.5" width="244.31" height="348.45" color-interpolation-filters="sRGB" filterUnits="userSpaceOnUse"><feFlood flood-color="#fff" result="bg"/><feBlend in="SourceGraphic" in2="bg"/></filter><filter id="luminosity-noclip-10" x="9.51" y="-8381.04" width="244.31" height="32766" color-interpolation-filters="sRGB" filterUnits="userSpaceOnUse"><feFlood flood-color="#fff" result="bg"/><feBlend in="SourceGraphic" in2="bg"/></filter><mask id="mask-9" x="9.51" y="-8381.04" width="244.31" height="32766" maskUnits="userSpaceOnUse"/><radialGradient id="radial-gradient-9" cx="77.49" cy="110.91" fx="77.49" fy="110.91" r="341.45" gradientUnits="userSpaceOnUse"><stop offset="0" stop-color="#000"/><stop offset="0" stop-color="#090909"/><stop offset=".05" stop-color="#373737"/><stop offset=".09" stop-color="#626262"/><stop offset=".14" stop-color="#878787"/><stop offset=".2" stop-color="#a8a8a8"/><stop offset=".25" stop-color="#c3c3c3"/><stop offset=".32" stop-color="#d9d9d9"/><stop offset=".4" stop-color="#eaeaea"/><stop offset=".49" stop-color="#f6f6f6"/><stop offset=".63" stop-color="#fdfdfd"/><stop offset="1" stop-color="#fff"/></radialGradient><mask id="mask-8" x="9.51" y="9.5" width="244.31" height="348.45" maskUnits="userSpaceOnUse"><g class="cls-24"><g class="cls-40"><path class="cls-19" d="M10.01,344.96V23c0-12.73,9.64-13,9.64-13h229.86s2.08.06,4.3,1.39c-2.48-1.82-5.05-1.9-5.05-1.9H19.14s-9.63.26-9.63,13.01v86.91s0,148.59,0,148.59v86.92c0,12.75,9.63,13.01,9.63,13.01h.51s-9.64-.26-9.64-12.99Z"/></g></g></mask><radialGradient id="radial-gradient-10" cx="77.49" cy="110.91" fx="77.49" fy="110.91" r="341.45" gradientUnits="userSpaceOnUse"><stop offset="0" stop-color="#fff"/><stop offset=".14" stop-color="#fff"/><stop offset="1" stop-color="#fff"/></radialGradient></defs><g class="cls-31"><g id="Calque_2"><g id="Layer_1"><g class="cls-30"><path class="cls-22" d="M29.98,378.29h229.62c.09,0,.17,0,.26,0,1.44-.04,8.92-.58,14.25-7.47,3.07-3.96,4.63-9.02,4.63-15.04V33.35c0-16.14-11.29-22.3-18.88-22.51-.08,0-.17,0-.26,0h-.51s-.09,0-.13,0H29.98c-.09,0-.17,0-.26,0-7.59.21-18.88,6.37-18.88,22.51v11.76c0,.13,0,.27,0,.4v300.45c0,.14,0,.28,0,.42v9.38c0,16.14,11.29,22.3,18.88,22.51.08,0,.17,0,.26,0Z"/><path class="cls-23" d="M29,377.3h229.62c.09,0,.17,0,.26,0,1.44-.04,8.92-.58,14.25-7.47,3.07-3.96,4.62-9.02,4.62-15.04V32.37c0-16.14-11.29-22.3-18.88-22.51-.09,0-.17,0-.26,0h-.51s-.09,0-.13,0H29c-.09,0-.17,0-.26,0-7.59.23-18.88,6.37-18.88,22.51v11.76c0,.13,0,.27,0,.4v300.45c0,.14,0,.28,0,.42v9.38c0,16.14,11.29,22.3,18.87,22.51.09,0,.17,0,.26,0Z"/><path class="cls-15" d="M28.01,376.32h229.62c.09,0,.17,0,.26,0,1.44-.04,8.92-.58,14.25-7.47,3.07-3.96,4.62-9.02,4.62-15.04V31.38c0-16.14-11.29-22.3-18.88-22.51-.09,0-.17,0-.26,0h-.51s-.09,0-.13,0H28.01c-.09,0-.17,0-.26,0-7.59.23-18.88,6.37-18.88,22.51v11.76c0,.13,0,.27,0,.4v300.45c0,.14,0,.28,0,.42v9.38c0,16.14,11.29,22.3,18.87,22.51.09,0,.17,0,.26,0Z"/><path class="cls-12" d="M27.02,375.33h229.62c.09,0,.17,0,.26,0,1.44-.04,8.92-.58,14.25-7.47,3.07-3.96,4.62-9.02,4.62-15.04V30.39c0-16.14-11.29-22.3-18.88-22.51-.09,0-.17,0-.26,0h-.51s-.09,0-.13,0H27.02c-.09,0-.17,0-.26,0-7.59.23-18.88,6.37-18.88,22.51v11.76c0,.13,0,.27,0,.4v300.45c0,.14,0,.28,0,.42v9.38c0,16.14,11.29,22.3,18.87,22.51.09,0,.17,0,.26,0Z"/><path class="cls-3" d="M26.04,374.35h229.62c.09,0,.17,0,.26,0,1.44-.04,8.92-.58,14.25-7.47,3.07-3.96,4.62-9.02,4.62-15.04V29.41c0-16.14-11.29-22.3-18.88-22.51-.09,0-.17,0-.26,0h-.51s-.09,0-.13,0H26.04c-.09,0-.17,0-.26,0-7.59.23-18.88,6.37-18.88,22.51v11.76c0,.13,0,.27,0,.4v300.45c0,.14,0,.28,0,.42v9.38c0,16.14,11.29,22.3,18.87,22.51.09,0,.17,0,.26,0Z"/><path class="cls-1" d="M25.05,373.36h229.63c.09,0,.17,0,.26,0,1.44-.04,8.92-.58,14.25-7.47,3.07-3.96,4.62-9.02,4.62-15.04V28.42c0-16.14-11.29-22.3-18.88-22.51-.09,0-.17,0-.26,0h-.51s-.09,0-.13,0H25.05c-.09,0-.17,0-.26,0-7.59.23-18.88,6.37-18.88,22.51v11.76c0,.13,0,.27,0,.4v300.45c0,.14,0,.28,0,.42v9.38c0,16.14,11.29,22.3,18.87,22.51.09,0,.17,0,.26,0Z"/><path class="cls-9" d="M24.07,372.38h229.62c.09,0,.17,0,.26,0,1.44-.04,8.92-.58,14.25-7.47,3.07-3.96,4.62-9.02,4.62-15.04V27.44c0-16.14-11.29-22.3-18.88-22.51-.09,0-.17,0-.26,0h-.51s-.09,0-.13,0H24.07c-.09,0-.17,0-.26,0-7.59.23-18.88,6.37-18.88,22.51v11.76c0,.13,0,.27,0,.4v300.45c0,.14,0,.28,0,.42v9.38c0,16.14,11.29,22.3,18.87,22.51.09,0,.17,0,.26,0Z"/><path class="cls-4" d="M23.08,371.39h229.62c.09,0,.17,0,.26,0,1.44-.04,8.92-.58,14.25-7.47,3.07-3.96,4.62-9.02,4.62-15.04V26.45c0-16.14-11.29-22.3-18.88-22.51-.09,0-.17,0-.26,0h-.51s-.09,0-.13,0H23.08c-.09,0-.17,0-.26,0-7.59.23-18.88,6.37-18.88,22.51v11.76c0,.13,0,.27,0,.4v300.45c0,.14,0,.28,0,.42v9.38c0,16.14,11.29,22.3,18.88,22.51.09,0,.17,0,.26,0Z"/><path class="cls-6" d="M22.1,370.41h229.62c.09,0,.17,0,.26,0,1.44-.04,8.92-.58,14.25-7.47,3.07-3.96,4.62-9.02,4.62-15.04V25.47c0-16.14-11.29-22.3-18.88-22.51-.09,0-.17,0-.26,0h-.51s-.09,0-.13,0H22.1c-.09,0-.17,0-.26,0-7.59.23-18.88,6.37-18.88,22.51v11.76c0,.13,0,.27,0,.4v300.45c0,.14,0,.28,0,.42v9.38c0,16.14,11.29,22.3,18.87,22.51.09,0,.17,0,.26,0Z"/><path class="cls-13" d="M21.11,369.42h229.63c.09,0,.17,0,.26,0,1.44-.04,8.92-.58,14.25-7.47,3.07-3.96,4.62-9.02,4.62-15.04V24.48c0-16.14-11.29-22.3-18.88-22.51-.08,0-.17,0-.26,0h-.51s-.09,0-.13,0H21.11c-.09,0-.17,0-.26,0C13.27,2.2,1.98,8.35,1.98,24.49v11.76c0,.13,0,.27,0,.4v300.45c0,.14,0,.28,0,.42v9.38c0,16.14,11.29,22.3,18.87,22.51.09,0,.17,0,.26,0Z"/><path class="cls-8" d="M20.13,368.43h229.62c.09,0,.17,0,.26,0,1.44-.04,8.92-.58,14.25-7.47,3.07-3.96,4.62-9.02,4.62-15.04V23.5c0-16.14-11.29-22.3-18.88-22.51-.08,0-.17,0-.26,0h-.51s-.09,0-.13,0H20.13c-.09,0-.17,0-.26,0C12.28,1.22.99,7.36.99,23.5v11.76c0,.13,0,.27,0,.4v300.45c0,.14,0,.28,0,.42v9.38c0,16.14,11.29,22.3,18.87,22.51.09,0,.17,0,.26,0Z"/><path class="cls-2" d="M19.14,367.45h229.62c.09,0,.17,0,.26,0,1.44-.04,8.92-.58,14.25-7.47,3.07-3.96,4.62-9.02,4.62-15.04V22.51C267.9,6.37,256.61.21,249.02,0c-.08,0-.17,0-.26,0h-.51s-.09,0-.13,0H19.14c-.09,0-.17,0-.26,0C11.29.21,0,6.38,0,22.52v11.76c0,.13,0,.27,0,.4v300.45c0,.14,0,.28,0,.42v9.38c0,16.14,11.29,22.3,18.87,22.51.09,0,.17,0,.26,0Z"/></g><path class="cls-22" d="M19.14,367.45h229.62c.09,0,.17,0,.26,0,1.44-.04,8.92-.58,14.25-7.47,3.07-3.96,4.62-9.02,4.62-15.04V22.51C267.9,6.37,256.61.21,249.02,0c-.08,0-.17,0-.26,0h-.51s-.09,0-.13,0H19.14c-.09,0-.17,0-.26,0C11.29.21,0,6.38,0,22.52v11.76c0,.13,0,.27,0,.4v300.45c0,.14,0,.28,0,.42v9.38c0,16.14,11.29,22.3,18.87,22.51.09,0,.17,0,.26,0Z"/><path class="cls-22" d="M248.77,9.5H19.14s-9.63.26-9.63,13.01v86.91s0,148.59,0,148.59v86.92c0,12.75,9.63,13.01,9.63,13.01h229.62s9.63-.26,9.63-13.01V22.51c0-12.75-9.63-13.01-9.63-13.01Z"/><g class="cls-28"><path class="cls-21" d="M156.26,197.56c-48.92.01-97.83.03-146.75.05v147.32c0,12.75,9.63,13.01,9.63,13.01h229.62s9.63-.26,9.63-13.01v-147.39c-34.05,0-68.09,0-102.14.01Z"/></g><g class="cls-33"><path class="cls-20" d="M9.51,183.35c20.95.02,41.89.03,62.84.04,60.36.03,120.72.04,181.09.05,1.66,0,3.31,0,4.97,0V22.51c0-12.75-9.63-13.01-9.63-13.01H19.14s-9.63.26-9.63,13.01v86.91s0,73.92,0,73.92Z"/></g><g class="cls-35"><path class="cls-10" d="M257.9,22.49v321.96c0,12.73-9.64,12.99-9.64,12.99H18.39s-2.08-.06-4.3-1.39c2.48,1.82,5.05,1.9,5.05,1.9h229.63s9.63-.26,9.63-13.01V22.51c0-12.75-9.63-13.01-9.63-13.01h-.51s9.64.26,9.64,12.99Z"/></g><g class="cls-38"><path class="cls-11" d="M9.5,34.68v300.45c.17-.61.33-1.22.5-1.83v-75.65s0-217.53,0-217.53c-.17-1.82-.34-3.63-.5-5.45Z"/></g><g class="cls-39"><path class="cls-14" d="M10.01,344.96V23c0-12.73,9.64-13,9.64-13h229.86s2.08.06,4.3,1.39c-2.48-1.82-5.05-1.9-5.05-1.9H19.14s-9.63.26-9.63,13.01v86.91s0,148.59,0,148.59v86.92c0,12.75,9.63,13.01,9.63,13.01h.51s-9.64-.26-9.64-12.99Z"/></g><path class="cls-7" d="M29.27,76.41c-.54,6.48-4.19,11.01-4.19,11.01h8.39s-3.65-4.54-4.19-11.01Z"/><path class="cls-7" d="M37.1,66.81c-5.19-3.59-7.76-7.34-7.83-7.44h0s0,0,0,0h0s0,0,0,0c-.07.1-2.63,3.85-7.83,7.44-5.26,3.64-6.46,8.17-4.58,11.6,1.88,3.42,9.41,5.09,12.41-1.71,3,6.8,10.53,5.13,12.41,1.71,1.88-3.42.68-7.96-4.58-11.6Z"/><path class="cls-7" d="M32.89,54.83v-1.08c.73-.15,1.28-.31,1.64-.48.36-.18.63-.42.8-.74.18-.31.27-.74.27-1.27,0-.5-.06-1.04-.18-1.62-.12-.58-.28-1.23-.51-1.95l-.81-2.84h-10.25l-.75,2.16c-.38,1.08-.63,1.91-.75,2.46-.12.56-.18,1.06-.18,1.52,0,.88.22,1.53.67,1.94.45.41,1.13.68,2.06.81v1.08h-9.39v-1.08c.82-.13,1.54-.61,2.14-1.43.61-.82,1.2-2,1.77-3.52l9.17-24.36h3.48l7.48,24.53c.35,1.14.66,2.02.93,2.62.27.6.6,1.07.98,1.41.38.34.9.59,1.56.75v1.08h-10.14ZM24.44,42.95h9.2l-4.18-14.19-5.02,14.19Z"/><path class="cls-7" d="M237.95,290.43c.54-6.48,4.19-11.01,4.19-11.01h-8.39s3.65,4.54,4.19,11.01Z"/><path class="cls-7" d="M230.13,300.03c5.19,3.59,7.76,7.34,7.83,7.44h0s0,0,0,0h0s0,0,0,0c.07-.1,2.63-3.85,7.83-7.44,5.26-3.64,6.46-8.17,4.58-11.6-1.88-3.42-9.41-5.09-12.41,1.71-3-6.8-10.52-5.13-12.41-1.71-1.88,3.42-.68,7.96,4.58,11.6Z"/><path class="cls-7" d="M234.33,312.01v1.08c-.73.15-1.28.31-1.64.48-.36.18-.63.42-.8.74-.18.31-.26.74-.26,1.27,0,.5.06,1.04.18,1.62.12.58.29,1.23.51,1.95l.81,2.84h10.25l.75-2.16c.38-1.09.63-1.91.75-2.46.12-.56.18-1.06.18-1.52,0-.88-.22-1.53-.67-1.94-.45-.41-1.13-.68-2.06-.82v-1.08h9.39v1.08c-.82.13-1.54.61-2.14,1.43-.61.82-1.2,1.99-1.77,3.52l-9.17,24.36h-3.48l-7.48-24.53c-.35-1.14-.66-2.02-.93-2.62-.27-.6-.6-1.07-.98-1.41-.38-.34-.9-.59-1.56-.75v-1.08h10.14ZM242.79,323.89h-9.2l4.18,14.19,5.02-14.19Z"/><path class="cls-7" d="M133.61,194.1c-1.92,22.92-14.84,38.97-14.84,38.97h29.69s-12.92-16.05-14.84-38.97Z"/><path class="cls-7" d="M161.32,160.12c-18.38-12.7-27.47-25.99-27.71-26.34v-.02h0s0,0,0,0v.02c-.24.35-9.32,13.63-27.7,26.34-18.63,12.87-22.87,28.92-16.21,41.04,6.66,12.11,33.31,18.02,43.91-6.05,10.61,24.07,37.25,18.16,43.92,6.05,6.66-12.12,2.42-28.17-16.21-41.04Z"/></g></g></g></svg>